<?xml version="1.0" encoding="utf-8"?>
<!-- Generator: Adobe Illustrator 16.0.0, SVG Export Plug-In . SVG Version: 6.00 Build 0)  -->
<!DOCTYPE svg PUBLIC "-//W3C//DTD SVG 1.1//EN" "http://www.w3.org/Graphics/SVG/1.1/DTD/svg11.dtd">
<svg version="1.1" id="Layer_1" xmlns="http://www.w3.org/2000/svg" xmlns:xlink="http://www.w3.org/1999/xlink" x="0px" y="0px"
	 width="40px" height="24px" viewBox="-0.5 4.5 40 24" enable-background="new -0.5 4.5 40 24" xml:space="preserve">
<path fill="#FFFFFF" d="M36.497,13.001l-1.005,0l0.002-5.416c0-1.7-1.306-3.083-2.909-3.083h-4.182
	c-1.603,0-2.909,1.384-2.908,3.084V13H13.503l0-5.417c0-1.699-1.305-3.082-2.909-3.083H6.413c-1.604,0-2.91,1.384-2.91,3.084
	l0,5.415l-1.005,0.001c-1.654,0-2.999,1.195-2.999,2.666v1.667c0,1.47,1.346,2.667,3,2.666l1.004,0.001v5.414
	c0,1.701,1.305,3.086,2.91,3.085l4.182-0.001c1.604,0.001,2.909-1.383,2.909-3.085l0-5.414h11.992l0.001,5.414
	c0,1.702,1.305,3.086,2.908,3.085h4.182c1.603,0,2.908-1.385,2.909-3.084V20l1.004,0.001c1.653-0.001,2.999-1.197,3-2.668v-1.667
	C39.499,14.198,38.153,13.003,36.497,13.001z M2.5,18.002c-0.589,0.001-1-0.351-1-0.666v-1.667c0-0.315,0.411-0.666,1-0.666
	l1.004-0.001v3L2.5,18.002z M11.503,25.416c0,0.601-0.407,1.086-0.91,1.086l-4.181,0.001c-0.5-0.002-0.91-0.488-0.91-1.085
	L5.503,7.586c0-0.599,0.408-1.084,0.91-1.084h4.181c0.501,0,0.909,0.487,0.909,1.084L11.503,25.416z M13.503,18.002l0-3
	l11.992,0.001l0.001,3L13.503,18.002z M33.494,25.417c0,0.6-0.408,1.085-0.91,1.085l-4.181,0.001
	c-0.502-0.002-0.908-0.487-0.908-1.085V7.586c0-0.599,0.407-1.085,0.909-1.084l4.181,0c0.503,0,0.909,0.487,0.909,1.084V25.417z
	 M37.497,17.335c-0.001,0.315-0.409,0.667-1,0.667h-1.004v-2.999h1.004c0.59,0,1.001,0.352,1.002,0.667L37.497,17.335z"/>
</svg>
