<?xml version="1.0" encoding="utf-8"?>
<!-- Generator: Adobe Illustrator 16.0.0, SVG Export Plug-In . SVG Version: 6.00 Build 0)  -->
<!DOCTYPE svg PUBLIC "-//W3C//DTD SVG 1.1//EN" "http://www.w3.org/Graphics/SVG/1.1/DTD/svg11.dtd">
<svg version="1.1" id="Layer_1" xmlns="http://www.w3.org/2000/svg" xmlns:xlink="http://www.w3.org/1999/xlink" x="0px" y="0px"
	 width="42px" height="24px" viewBox="0 0 42 24" enable-background="new 0 0 42 24" xml:space="preserve">
<path fill="#FFFFFF" d="M41.704,8.655c-0.094-0.46-0.222-0.877-0.365-1.268c-0.015-0.05-0.032-0.1-0.062-0.144
	c-0.892-2.27-2.556-3.334-3.93-3.334c-0.775,0-1.226,0.699-1.702,1.439c-0.684,1.061-1.458,2.263-3.354,2.362
	c-1.468,0-2.919-2.652-3.978-4.589C27.285,1.242,26.605,0,25.685,0c-0.231,0-0.572,0.086-0.876,0.497
	c-1.419,1.921-9.646,7.297-13.395,8.975C10.908,9.699,9.713,9.811,8.447,9.93C4.879,10.267-0.008,10.726,0,14.272
	c0.004,1.481,0.549,2.734,1.475,3.8c0.007,0.008,0.014,0.015,0.021,0.022C6.378,23.667,21.77,24,25.312,24
	c8.712,0,15.986-2.445,16.058-2.47c0.193-0.066,0.329-0.239,0.343-0.44C41.738,20.715,42.352,11.85,41.704,8.655z M32.037,18.255
	c-1.02-2.598-6.613-8.305-8.403-10.092c1.53-0.821,2.84-1.538,3.605-1.958c0.372,1.527,1.03,3.163,2.195,4.237
	c0.863,0.796,1.905,1.198,3.102,1.198c0.13,0,0.263-0.004,0.396-0.014c4.219-0.3,6.626-2.07,7.686-3.093
	c0.026,0.11,0.062,0.201,0.086,0.318c0.302,1.488,0.31,4.377,0.237,6.968C37.829,16.872,34.857,17.663,32.037,18.255z
	 M24.017,19.467c-0.746-2.16-4.697-6.735-6.104-8.321c0.515-0.256,1.058-0.533,1.612-0.818c2.789,2.609,6.843,6.886,7.471,8.805
	C25.975,19.271,24.984,19.379,24.017,19.467z M19.621,19.721c-0.493-2.54-3.387-5.904-4.608-7.231
	c0.518-0.208,1.178-0.505,1.957-0.881c2.18,2.436,5.303,6.259,6.006,7.945C21.816,19.642,20.698,19.695,19.621,19.721z
	 M28.004,18.982c-0.764-2.581-5.791-7.504-7.527-9.147c0.748-0.39,1.497-0.785,2.223-1.172c3.121,3.087,7.484,7.819,8.33,9.799
	C29.998,18.663,28.991,18.834,28.004,18.982z M32.291,8.714c0.009,0,0.112-0.002,0.123-0.003c2.352-0.126,3.398-1.75,4.092-2.826
	c0.293-0.456,0.626-0.973,0.841-0.973c0.729,0,2.102,0.583,2.917,2.529c-0.599,0.682-2.848,2.86-7.405,3.185
	c-1.068,0.077-1.975-0.222-2.726-0.915c-1.334-1.229-1.913-3.426-2.165-5.114C29.148,6.692,30.5,8.714,32.291,8.714z M25.633,1.087
	c0.033-0.044,0.058-0.068,0.062-0.079c0.24,0.083,0.654,0.712,1.062,1.412c0.005,0.376,0.043,1.455,0.271,2.751
	c-3.427,1.89-11.611,6.304-13.025,6.612c-0.991,0.218-1.543-0.958-1.765-1.587C16.306,8.27,24.161,3.081,25.633,1.087z
	 M8.543,10.929c1.127-0.106,2.066-0.196,2.744-0.366c0.359,1.003,1.15,2.253,2.458,2.253c0.053,0,0.112-0.014,0.168-0.019
	c0.769,0.812,4.093,4.423,4.679,6.942C9.129,19.807,3.17,17.703,2.201,17.335c-0.752-0.897-1.179-1.913-1.182-3.064
	C1.013,11.638,5.366,11.228,8.543,10.929z M25.312,22.996c-7.812,0-16.536-1.114-21.105-3.975c2.726,0.743,7.533,1.722,13.954,1.722
	c0.276,0,0.57-0.013,0.851-0.017c0.055,0.02,0.112,0.033,0.173,0.033c0.01,0,0.02,0,0.031-0.001c0.053-0.003,0.1-0.021,0.148-0.038
	c1.335-0.026,2.724-0.089,4.183-0.209c0.028,0.005,0.056,0.017,0.086,0.017c0.014,0,0.025,0,0.038-0.001
	c0.056-0.004,0.105-0.022,0.155-0.042c1.193-0.104,2.432-0.249,3.703-0.429c0.023,0.003,0.043,0.013,0.066,0.013
	c0.001,0,0.003,0,0.004,0c0.077-0.001,0.149-0.021,0.215-0.052c1.265-0.185,2.553-0.395,3.889-0.663
	c0.015-0.001,0.031-0.001,0.046-0.003c0.019-0.003,0.034-0.014,0.053-0.018c2.879-0.586,5.925-1.393,9.105-2.451
	c-0.062,1.713-0.149,3.17-0.188,3.801C39.239,21.144,32.822,22.996,25.312,22.996z"/>
</svg>
